<svg width="96" height="30" viewBox="0 0 96 30" fill="none" xmlns="http://www.w3.org/2000/svg">
<path d="M95.6405 7.58819C95.4841 7.39759 95.2867 7.24394 95.0627 7.13843C94.8387 7.03291 94.5938 6.97819 94.3457 6.97825H88.4537C88.0664 6.97606 87.6904 7.10699 87.3897 7.34872C87.089 7.59045 86.8823 7.92799 86.8049 8.30378L86.2569 11.6656C85.5132 11.5038 84.7536 11.4249 83.9922 11.4303H83.677L84.0407 8.95694C84.0903 8.71622 84.0853 8.46758 84.0259 8.22904C83.9665 7.99049 83.8543 7.768 83.6974 7.57769C83.5405 7.38737 83.3429 7.234 83.1188 7.12866C82.8946 7.02332 82.6497 6.96867 82.4016 6.96864H76.5144C76.1288 6.96868 75.755 7.10062 75.4563 7.34216C75.1576 7.5837 74.9524 7.92 74.8753 8.29418L74.7346 8.98576C74.3568 8.43318 73.8743 7.95854 73.3137 7.58819C72.2957 6.96353 71.1165 6.64488 69.9191 6.67088C68.8434 6.66459 67.7798 6.89593 66.8058 7.34805C66.5053 7.09482 66.1238 6.95528 65.7292 6.95424H41.9331C41.6567 6.95184 41.3841 7.01725 41.1396 7.14463C40.895 7.27202 40.6861 7.45741 40.5316 7.68424L40.4831 7.75628C40.4439 7.69245 40.4001 7.63146 40.3521 7.57378C40.1957 7.38318 39.9983 7.22953 39.7743 7.12402C39.5503 7.01851 39.3054 6.96379 39.0573 6.96384H33.6793C34.1109 6.96384 31.4825 4.56252 29.7464 4.25035C28.0103 3.93817 27.5448 1.23428 25.4547 1.21507C24.7709 1.21507 24.1647 1.6281 23.4907 1.69534C24.189 1.88264 26.1869 2.51179 24.8485 3.36185C23.8107 4.01982 22.5984 3.2658 21.9146 2.49738C20.4016 0.79724 18.7237 -0.16329 16.3717 0.576318C17.1621 0.720397 20.2512 2.14678 18.1563 2.70389C17.1282 2.97284 16.3668 2.22363 15.6976 1.56566C14.8587 0.749213 14.301 0.408225 13.0935 0.480265C12.5755 0.542616 12.0532 0.561894 11.532 0.537897C11.0119 0.453267 10.5131 0.270671 10.0626 0C10.0022 0.190929 9.98474 0.392655 10.0116 0.590971C10.0384 0.789287 10.1088 0.97937 10.2178 1.14783C10.4845 1.51283 10.9064 1.44079 11.2507 1.67132C12.2206 2.30527 10.9694 3.06889 10.3147 3.03527C10.1261 3.04307 9.9378 3.0129 9.76125 2.94658C9.5847 2.88026 9.42357 2.77918 9.28758 2.64945C9.1516 2.51971 9.04358 2.36402 8.97008 2.19177C8.89657 2.01952 8.8591 1.83431 8.85992 1.64731C8.5447 2.7135 8.37497 3.22258 9.0345 4.07265C9.34486 4.46646 9.98014 5.37897 8.98115 5.29252C8.08401 5.21568 8.45741 4.07265 7.85608 3.68843C6.8377 3.04008 5.43137 4.24554 5.23254 5.18206C6.76981 3.90936 8.52046 6.03213 6.8765 6.58924C6.32852 6.79569 5.72026 6.77869 5.18491 6.54195C4.64957 6.30521 4.23075 5.86803 4.02018 5.32614C4.47118 6.28667 4.09777 7.15595 5.43137 7.42009C6.36246 7.6074 7.54087 7.19437 8.34103 7.87635C9.28182 8.68799 8.19069 10.2777 7.08502 9.99912C5.89691 9.73017 5.44591 7.95799 4.17536 7.87154C3.18123 7.80431 2.42472 9.12503 1.89128 9.75418C2.86117 9.09622 3.72922 8.84168 4.51482 9.84543C4.90763 10.3497 5.1307 10.9212 5.66414 11.3102C6.19758 11.6993 6.56128 11.7281 7.11897 12.0931C8.43317 13.0056 6.77466 13.5339 5.79022 13.0536C4.66031 12.4725 4.62151 11.4399 3.18608 11.4063C1.93977 11.3535 0 12.3044 0 12.3044C0 12.3044 2.57505 12.2275 3.67587 12.8519C4.01712 13.0341 4.28054 13.3321 4.41773 13.6912C4.55492 14.0502 4.55668 14.4463 4.42268 14.8066C4.13657 15.5222 2.54595 16.0985 2.04161 15.4645C1.93853 15.3591 1.86605 15.2281 1.83179 15.0853C1.79753 14.9426 1.80276 14.7933 1.84693 14.6532C1.8911 14.5131 1.97258 14.3874 2.08279 14.2893C2.193 14.1912 2.32787 14.1244 2.47321 14.0958C1.86703 13.9901 0.68377 14.1486 1.01838 15.868C1.2657 17.2271 2.95815 17.1647 4.02018 16.9437C4.99007 16.7372 6.68737 16.0745 6.57098 17.5873C6.58245 17.8082 6.53056 18.0278 6.42132 18.2207C6.31207 18.4136 6.14993 18.572 5.95363 18.6775C5.75733 18.7829 5.5349 18.8313 5.31204 18.8168C5.08918 18.8024 4.875 18.7258 4.69425 18.5959C3.66132 18.034 2.62839 17.4336 1.64396 18.4998C2.52656 18.4998 3.70982 18.7591 4.03473 19.6717C4.10078 19.8211 4.12731 19.9848 4.1118 20.1472C4.0963 20.3096 4.03928 20.4654 3.94612 20.6C3.85295 20.7346 3.72672 20.8434 3.57932 20.9162C3.43192 20.9891 3.26821 21.0236 3.10364 21.0164C2.44896 21.05 2.04646 20.368 2.26954 19.494C1.99797 19.7457 1.82993 20.088 1.7977 20.455C1.76548 20.822 1.87134 21.1879 2.09496 21.4823C2.90481 22.4428 6.8668 21.3478 6.10544 22.5677C5.89206 22.9182 5.29073 22.875 4.96097 23.0047C3.8262 23.4465 4.10262 24.3398 4.96097 24.9834C4.92218 23.0623 7.49723 24.1573 8.43801 24.6952C10.2566 25.7374 7.09472 26.6739 6.13453 25.1179C6.8862 27.7065 9.52914 27.5432 11.4689 26.4194C12.2789 25.8728 13.2737 25.664 14.2379 25.8383C15.0429 26.0063 16.1777 26.6691 15.0187 27.279C14.0436 27.6702 12.9532 27.6702 11.9781 27.279C12.7395 28.3308 13.7142 29.1617 15.0769 29.2289C16.653 29.3106 18.0447 28.3116 19.5238 27.9466C20.0088 27.8217 22.7875 27.5048 21.7352 28.6334C21.0271 29.397 19.3104 29.2001 18.3939 29.0176C19.0678 29.5915 19.9115 29.9331 20.7983 29.9912C21.6851 30.0492 22.567 29.8205 23.3112 29.3394C24.0386 28.912 24.8097 28.254 25.7359 28.3308C26.6622 28.4077 26.0027 29.0416 25.4159 29.5459C26.3818 29.5452 27.3345 29.3233 28.1995 28.8975C28.8676 28.4357 29.3972 27.8034 29.7319 27.0677C30.3971 25.6033 30.8556 24.0551 31.0946 22.4668C33.0343 22.3035 35.0469 22.438 37.0012 22.438C37.275 22.438 37.5447 22.3715 37.7865 22.2442C38.0283 22.1169 38.2349 21.9328 38.3881 21.708V21.6792C38.4209 21.7318 38.4583 21.7817 38.4997 21.828C38.6561 22.0186 38.8535 22.1723 39.0775 22.2778C39.3015 22.3833 39.5464 22.438 39.7945 22.438H52.2381C52.6235 22.437 52.9968 22.3048 53.2953 22.0634C53.5938 21.822 53.7993 21.4862 53.8772 21.1124L55.2011 14.5136H57.2718L55.0265 25.5597C54.9769 25.8004 54.982 26.0491 55.0413 26.2876C55.1007 26.5262 55.2129 26.7486 55.3698 26.939C55.5267 27.1293 55.7243 27.2826 55.9485 27.388C56.1726 27.4933 56.4176 27.548 56.6656 27.548H62.5577C62.9424 27.5473 63.3152 27.4157 63.6136 27.1753C63.912 26.9348 64.1179 26.6001 64.1968 26.2273L65.0067 22.3371C65.7426 22.6043 66.5216 22.7362 67.3053 22.7261C69.1369 22.7566 70.9196 22.1403 72.3342 20.9876C72.3673 21.3048 72.4938 21.6054 72.6979 21.8521C72.855 22.0419 73.0526 22.195 73.2764 22.3004C73.5002 22.4059 73.7448 22.461 73.9927 22.462H91.824C92.2094 22.4611 92.5827 22.3288 92.8812 22.0874C93.1797 21.846 93.3852 21.5102 93.4631 21.1365L95.9655 9.00977C96.0158 8.76915 96.0111 8.52039 95.9515 8.28184C95.8919 8.04329 95.779 7.82102 95.6211 7.63141" fill="#0D0802"/>
<path d="M47.6893 8.66878L45.187 20.7955H39.809L40.9777 15.1187H40.8613L37.0012 20.7955H31.177L33.6793 8.66878H39.0573L37.8886 14.3311H38.005L41.9137 8.66878H47.6893Z" fill="#F5F5F5"/>
<path d="M59.0612 8.66878L58.1544 12.8711H53.8481L52.2526 20.7955H46.3557L48.858 8.66878H59.0612Z" fill="#F5F5F5"/>
<path d="M74.1333 12.9672C74.1333 15.3749 73.4867 17.3232 72.1935 18.812C71.6084 19.5235 70.8681 20.0945 70.0282 20.4821C69.1883 20.8698 68.2706 21.0639 67.3441 21.05C66.7452 21.0617 66.1495 20.9606 65.5886 20.7523C64.8721 20.4796 64.2934 19.9375 63.9786 19.2442L62.5577 25.8815H56.6802L60.2397 8.64477H65.7098L65.2879 10.7099H65.3849C65.8794 9.96452 66.559 9.35756 67.3586 8.94734C68.1466 8.55535 69.018 8.35608 69.8997 8.36622C70.78 8.33461 71.6502 8.56008 72.4021 9.01458C73.5562 9.77019 74.1333 11.0893 74.1333 12.972V12.9672ZM66.67 12.3092C66.35 12.3106 66.0401 12.4208 65.7923 12.6214C65.4673 12.9008 65.2145 13.2532 65.0552 13.6491C64.7115 14.4223 64.5364 15.2585 64.5411 16.1033C64.525 16.2999 64.5499 16.4977 64.6141 16.6844C64.6783 16.8711 64.7806 17.0427 64.9145 17.1887C65.0089 17.2751 65.1196 17.3422 65.2403 17.3859C65.361 17.4296 65.4893 17.4491 65.6177 17.4432C65.9118 17.4506 66.2001 17.361 66.4373 17.1887C66.8029 16.9054 67.0858 16.5307 67.2568 16.1033C67.4109 15.7119 67.5325 15.3088 67.6205 14.8978C67.7129 14.4877 67.7633 14.0693 67.7708 13.6491C67.7939 13.4408 67.7678 13.2299 67.6946 13.0333C67.6214 12.8366 67.503 12.6594 67.3489 12.5157" fill="#F5F5F5"/>
<path d="M88.0027 13.9277C87.2074 13.0296 85.8738 12.7606 84.0019 12.7606C83.8613 12.7606 83.5169 12.7606 82.9011 12.8183C82.2852 12.8759 81.8827 12.8759 81.616 12.8759L82.4113 8.66399H76.5144L74.0121 20.7955H81.7372C84.0164 20.7955 86.4363 20.1951 87.5565 18.9897C88.3637 18.1636 88.8097 17.0558 88.798 15.9064C88.8087 15.5403 88.7437 15.1759 88.6069 14.8356C88.4701 14.4953 88.2645 14.1863 88.0027 13.9277ZM82.3288 17.448C81.9231 17.7853 81.4029 17.957 80.874 17.9283H80.3891L80.9516 15.1956H81.4365C81.7406 15.1814 82.044 15.2356 82.324 15.3541C82.5021 15.4405 82.6492 15.5789 82.7455 15.7506C82.8417 15.9224 82.8825 16.1192 82.8623 16.3146C82.864 16.5321 82.8181 16.7473 82.7276 16.9455C82.6372 17.1436 82.5045 17.32 82.3385 17.4624" fill="#F5F5F5"/>
<path d="M88.4537 8.66878L87.6923 12.3476C88.379 12.5521 88.9951 12.9411 89.4721 13.4714C90.0347 14.1211 90.3337 14.9547 90.311 15.8103C90.3286 17.0562 89.8595 18.2607 89.0017 19.1722C88.2647 19.9704 87.3095 20.5394 86.252 20.8099H91.8434L94.3457 8.68319L88.4537 8.66878Z" fill="#F5F5F5"/>
<path d="M17.5016 11.2046C17.2977 10.3119 16.8459 9.49346 16.1971 8.84168C15.0429 7.57858 14.1652 7.17516 14.6162 6.92062C15.2366 6.5532 15.8971 6.25674 16.5851 6.03693C17.6956 5.65752 17.9672 5.62871 18.3794 6.19542C18.7916 6.76213 20.1155 8.72161 19.9457 9.87905C19.776 11.0365 19.2426 10.878 19.2426 10.878L17.5016 11.2046Z" fill="#F5F5F5"/>
<path d="M20.7313 10.8588C21.222 10.0823 21.4856 9.18617 21.4927 8.27016C21.58 6.57002 21.2454 5.67192 21.7497 5.8064C22.4472 5.98144 23.1224 6.2344 23.7622 6.56041C24.8146 7.06469 25.0328 7.23759 24.9164 7.92917C24.8 8.62075 24.3393 10.9308 23.3985 11.6272C22.4577 12.3236 22.1813 11.8433 22.1813 11.8433L20.7313 10.8588Z" fill="#F5F5F5"/>
<path d="M23.2773 12.8711C24.1783 12.6682 25.0045 12.2209 25.6632 11.5792C26.9386 10.4361 27.346 9.56686 27.603 10.0135C27.9748 10.6298 28.2758 11.2855 28.5001 11.9682C28.8832 13.0632 28.9123 13.3369 28.3352 13.7452C27.7582 14.1534 25.7844 15.4645 24.6206 15.2964C23.4567 15.1283 23.6119 14.5952 23.6119 14.5952L23.2773 12.8711Z" fill="#F5F5F5"/>
<path d="M23.6119 16.0697C24.3954 16.5513 25.2988 16.8074 26.2209 16.8093C27.9376 16.8957 28.8493 16.5643 28.7135 17.0638C28.5362 17.759 28.2808 18.4324 27.9521 19.0713C27.4381 20.1135 27.2684 20.3296 26.5701 20.2144C25.8717 20.0991 23.5392 19.662 22.8311 18.7303C22.1231 17.7986 22.6178 17.5297 22.6178 17.5297L23.6119 16.0697Z" fill="#F5F5F5"/>
<path d="M21.5751 18.5766C21.779 19.4693 22.2309 20.2878 22.8796 20.9395C24.0338 22.2026 24.9115 22.6109 24.4605 22.8606C23.8401 23.228 23.1796 23.5245 22.4917 23.7443C21.3812 24.1285 21.1047 24.1573 20.6974 23.5858C20.29 23.0143 18.9613 21.0596 19.1262 19.907C19.2911 18.7543 19.8342 18.9032 19.8342 18.9032L21.5751 18.5766Z" fill="#F5F5F5"/>
<path d="M18.3454 18.9272C17.8527 19.7011 17.589 20.5963 17.584 21.5111C17.4967 23.2112 17.8314 24.1141 17.327 23.9796C16.6239 23.8056 15.9436 23.5509 15.3 23.2208C14.2428 22.7165 14.0294 22.5436 14.1458 21.8521C14.2622 21.1605 14.7229 18.8552 15.6637 18.154C16.6045 17.4528 16.8809 17.9427 16.8809 17.9427L18.3454 18.9272Z" fill="#F5F5F5"/>
<path d="M15.814 16.9101C14.913 17.113 14.0868 17.5604 13.4281 18.202C12.1527 19.3451 11.7453 20.2144 11.4883 19.7677C11.1144 19.1524 10.8134 18.4966 10.5912 17.813C10.2081 16.718 10.179 16.4443 10.7512 16.036C11.3234 15.6278 13.3068 14.3215 14.4707 14.4848C15.6346 14.6481 15.4794 15.186 15.4794 15.186L15.814 16.9101Z" fill="#F5F5F5"/>
<path d="M15.4648 13.7116C14.6819 13.2282 13.7785 12.9704 12.8558 12.9671C11.1343 12.8855 10.2275 13.2121 10.3632 12.7174C10.5389 12.0217 10.7944 11.3481 11.1246 10.7099C11.6095 9.66293 11.8084 9.45161 12.5067 9.56687C13.205 9.68214 15.5182 10.124 16.2456 11.0461C16.973 11.9682 16.459 12.2468 16.459 12.2468L15.4648 13.7116Z" fill="#F5F5F5"/>
<path d="M17.0361 9.33155C16.5716 8.72225 16.0644 8.1461 15.5182 7.6074C15.0332 7.19437 14.9508 7.12713 15.0866 7.05509C15.2224 6.98305 15.6685 7.38167 16.1244 7.90996C16.5802 8.43825 17.2009 9.26431 17.2009 9.26431L17.0361 9.33155Z" fill="#0D0802"/>
<path d="M21.74 9.20667C21.8471 8.45089 21.9006 7.6886 21.9 6.92541C21.8225 6.28186 21.8225 6.20021 21.9873 6.24344C22.1522 6.28666 22.1668 6.88219 22.1134 7.57858C22.0601 8.27496 21.9097 9.28832 21.9097 9.28832L21.74 9.20667Z" fill="#0D0802"/>
<path d="M25.154 12.4148C25.77 11.9558 26.3519 11.4535 26.895 10.9116C27.312 10.4314 27.3799 10.3545 27.4526 10.4842C27.5254 10.6139 27.1229 11.0461 26.5894 11.5264C26.056 12.0066 25.2171 12.5829 25.2171 12.5829L25.154 12.4148Z" fill="#0D0802"/>
<path d="M25.2752 17.0734C26.0384 17.1795 26.8081 17.2325 27.5787 17.2319C28.2286 17.1695 28.311 17.1647 28.277 17.3184C28.2431 17.472 27.6321 17.4961 26.9338 17.4432C26.2354 17.3904 25.2171 17.2367 25.2171 17.2367L25.2752 17.0734Z" fill="#0D0802"/>
<path d="M22.0407 20.4545C22.5036 21.0636 23.0092 21.6398 23.5537 22.1786C24.0386 22.5917 24.1162 22.6589 23.9853 22.7309C23.8544 22.803 23.4034 22.3996 22.9475 21.8761C22.4917 21.3526 21.8709 20.5217 21.8709 20.5217L22.0407 20.4545Z" fill="#0D0802"/>
<path d="M17.3367 20.5746C17.2296 21.3303 17.1761 22.0926 17.1767 22.8558C17.2349 23.4994 17.2397 23.581 17.0894 23.5474C16.9391 23.5138 16.91 22.9086 16.9633 22.2171C17.0167 21.5255 17.167 20.5025 17.167 20.5025L17.3367 20.5746Z" fill="#0D0802"/>
<path d="M13.9227 17.3664C13.3079 17.8269 12.7262 18.3292 12.1818 18.8696C11.7647 19.3499 11.6968 19.4267 11.6241 19.2971C11.5513 19.1674 11.9539 18.7303 12.4873 18.2501C13.0207 17.7698 13.8548 17.1791 13.8548 17.1791L13.9227 17.3664Z" fill="#0D0802"/>
<path d="M13.7966 12.7126C13.0354 12.6041 12.2671 12.5511 11.498 12.5541C10.8482 12.6118 10.7657 12.6166 10.7948 12.4629C10.8239 12.3092 11.4447 12.29 12.143 12.3428C12.8413 12.3956 13.8694 12.5445 13.8694 12.5445L13.7966 12.7126Z" fill="#0D0802"/>
<path d="M23.2773 20.6514C22.1256 21.3846 20.7801 21.763 19.4111 21.7387C18.0422 21.7144 16.7113 21.2885 15.5868 20.5149C14.4624 19.7412 13.595 18.6546 13.0943 17.3926C12.5936 16.1305 12.4822 14.7497 12.7742 13.425C13.0662 12.1002 13.7484 10.891 14.7346 9.95032C15.7207 9.00967 16.9664 8.37987 18.3141 8.14061C19.6618 7.90136 21.0509 8.06341 22.3056 8.60625C23.5602 9.14909 24.6241 10.0483 25.3625 11.1902C26.3513 12.7191 26.6871 14.5741 26.2961 16.348C25.9052 18.1218 24.8194 19.6696 23.2773 20.6514Z" fill="#F5F5F5"/>
<path d="M23.0057 20.2624C21.9332 20.9449 20.6805 21.297 19.4059 21.2743C18.1313 21.2516 16.8921 20.855 15.8451 20.1348C14.7981 19.4145 13.9903 18.4029 13.5238 17.228C13.0574 16.053 12.9533 14.7675 13.2246 13.5339C13.496 12.3003 14.1307 11.1742 15.0484 10.2978C15.9661 9.42154 17.1256 8.83443 18.3802 8.6108C19.6349 8.38717 20.9283 8.53705 22.0969 9.04149C23.2655 9.54593 24.2569 10.3823 24.9455 11.4447C25.8673 12.8692 26.1807 14.5977 25.8171 16.2509C25.4534 17.904 24.4423 19.3467 23.0057 20.2624Z" fill="#1D1D1B"/>
<path d="M30.7309 10.0856L29.9695 13.5002C30.0804 14.296 30.0983 15.1018 30.0228 15.9016L31.3807 9.7974C31.414 9.63913 31.4351 9.47858 31.4437 9.31714C31.2813 9.61756 31.0443 9.87209 30.7551 10.0567L30.7309 10.0856Z" fill="#F5F5F5"/>
<path d="M27.6757 23.8211L27.7533 23.946C27.9066 24.1851 28.0074 24.4534 28.0491 24.7336C28.0491 24.6616 28.0879 24.5896 28.1025 24.5175L29.4603 18.4086C29.1913 19.1639 28.8349 19.8859 28.3983 20.5601L27.6757 23.8211Z" fill="#F5F5F5"/>
<path d="M24.3054 25.9343L21.0126 25.2139C20.2092 25.3254 19.3954 25.3431 18.5879 25.2667L24.7612 26.6115C24.833 26.6289 24.9059 26.6418 24.9794 26.6499C24.7404 26.4973 24.5371 26.2959 24.3829 26.0592L24.3054 25.9343Z" fill="#F5F5F5"/>
<path d="M28.3789 6.86299L28.6117 6.72371C28.7984 6.60345 29.0053 6.51725 29.2227 6.46917L23.0785 5.12923C23.8408 5.39665 24.5697 5.74954 25.251 6.18101L28.3789 6.86299Z" fill="#F5F5F5"/>
<path d="M11.4544 6.04174L11.3768 5.91687C11.2207 5.67916 11.1197 5.41018 11.081 5.12923L11.0228 5.34535L9.66493 11.4543C9.93697 10.7017 10.2932 9.98166 10.727 9.30754L11.4544 6.04174Z" fill="#F5F5F5"/>
<path d="M8.47196 19.4651L9.16058 16.3674C9.04764 15.5718 9.02974 14.7658 9.10724 13.9661L7.75909 20.0511C7.8948 19.8781 8.0587 19.7288 8.24404 19.6092L8.47196 19.4651Z" fill="#F5F5F5"/>
<path d="M14.8199 3.90936L18.1175 4.62976C18.9208 4.51791 19.7347 4.50018 20.5422 4.57693L14.364 3.23218C14.2922 3.21474 14.2193 3.2019 14.1458 3.19376C14.3848 3.34639 14.5882 3.54778 14.7423 3.78449L14.8199 3.90936Z" fill="#F5F5F5"/>
<path d="M10.4214 22.9278C10.1315 23.114 9.79671 23.2201 9.45155 23.2352C9.59774 23.2939 9.74859 23.3405 9.90254 23.3745L16.0516 24.7336C15.2904 24.4672 14.563 24.1142 13.8839 23.6819L10.4214 22.9278Z" fill="#F5F5F5"/>
<path d="M28.0491 24.7336C28.0074 24.4534 27.9066 24.1851 27.7533 23.946L27.6757 23.8211L26.8028 22.4716C28.0005 21.3443 28.9113 19.9519 29.4603 18.4086C29.7512 17.594 29.9401 16.7472 30.0228 15.8872C30.1803 14.2193 29.9274 12.5384 29.2857 10.9885L30.7406 10.0712H30.7648C31.054 9.8865 31.291 9.63197 31.4534 9.33155C31.6326 8.99521 31.7101 8.61487 31.6767 8.23604C31.6433 7.85721 31.5003 7.49594 31.265 7.19547C31.0296 6.895 30.7118 6.66806 30.3496 6.5418C29.9874 6.41555 29.5962 6.39533 29.2227 6.48357C29.0063 6.5272 28.7994 6.6085 28.6117 6.72371L28.3886 6.86298L27.0938 7.68424C25.9724 6.53935 24.5978 5.668 23.0784 5.13883C22.2564 4.85009 21.4011 4.66454 20.5325 4.58653C19.725 4.50978 18.9111 4.52751 18.1078 4.63936C17.2771 4.75265 16.4631 4.96387 15.6831 5.2685L14.8102 3.91896L14.7326 3.79409C14.4868 3.41339 14.1168 3.12747 13.6842 2.98387C13.2516 2.84027 12.7824 2.84765 12.3546 3.00477C11.9267 3.1619 11.5661 3.45931 11.3327 3.84754C11.0992 4.23578 11.007 4.69147 11.0713 5.13883C11.11 5.41978 11.211 5.68876 11.3671 5.92647L11.4447 6.05134L12.3176 7.40088C11.7095 7.97652 11.1723 8.62135 10.7172 9.32194C10.2835 9.99606 9.92726 10.7161 9.65522 11.4687C9.36545 12.2833 9.17815 13.1302 9.09753 13.9901C9.02004 14.7899 9.03794 15.5959 9.15088 16.3914C9.25976 17.1732 9.45825 17.9402 9.74251 18.6775L8.46226 19.4891L8.23918 19.6332C7.86474 19.8668 7.57944 20.2172 7.42826 20.6291C7.27709 21.041 7.26864 21.491 7.40424 21.9082C7.53984 22.3254 7.81178 22.686 8.1772 22.9333C8.54261 23.1805 8.98072 23.3002 9.42245 23.2736C9.76761 23.2586 10.1024 23.1524 10.3923 22.9663L11.8472 22.049C12.9989 23.2732 14.4311 24.2051 16.023 24.766C17.6148 25.3268 19.3195 25.5002 20.9932 25.2715C21.8244 25.1609 22.6387 24.9496 23.4179 24.6424L24.3054 25.9343L24.3878 26.0592C24.6336 26.4399 25.0035 26.7258 25.4362 26.8694C25.8688 27.013 26.338 27.0056 26.7658 26.8485C27.1936 26.6914 27.5542 26.394 27.7877 26.0057C28.0212 25.6175 28.1134 25.1618 28.0491 24.7144V24.7336ZM23.1657 24.1861C21.9057 24.6695 20.5589 24.8918 19.2086 24.8393C16.5809 24.7499 14.0946 23.6387 12.2885 21.7464C11.8549 21.2919 11.4653 20.7983 11.1246 20.272C10.7369 19.6774 10.4119 19.0449 10.1547 18.3845C9.35814 16.2602 9.32021 13.9297 10.0472 11.781C10.7743 9.63227 12.2224 7.79495 14.1506 6.57482C15.8629 5.49191 17.8668 4.9493 19.8972 5.01877C21.109 5.06637 22.3027 5.32654 23.4228 5.78719C25.3075 6.56558 26.9055 7.89834 28.0006 9.6053C28.3416 10.1305 28.6306 10.687 28.8638 11.267C29.3828 12.5429 29.6272 13.912 29.5815 15.2868C29.5359 16.4857 29.2731 17.6667 28.8056 18.7736C28.2838 20.0081 27.5132 21.1243 26.5409 22.0538C26.0599 22.5179 25.5318 22.9315 24.9649 23.288C24.4008 23.6469 23.8012 23.9479 23.1754 24.1861" fill="#F5F5F5"/>
<path d="M30.4011 9.6053C30.1593 9.76214 29.8758 9.8441 29.5868 9.84072C29.2978 9.83734 29.0163 9.74877 28.7783 9.5863C28.5403 9.42384 28.3566 9.19486 28.2506 8.92856C28.1445 8.66225 28.121 8.37071 28.183 8.09111C28.245 7.81151 28.3896 7.55653 28.5985 7.35869C28.8074 7.16085 29.0711 7.02913 29.3559 6.98033C29.6408 6.93152 29.9338 6.96784 30.1977 7.08466C30.4616 7.20147 30.6843 7.39349 30.8376 7.63621C31.0393 7.95575 31.1066 8.34085 31.025 8.70894C30.9434 9.07703 30.7194 9.39881 30.4011 9.6053Z" fill="#0D0802"/>
<path d="M8.59804 20.0415C8.83984 19.8846 9.12333 19.8026 9.41236 19.806C9.70139 19.8094 9.98284 19.898 10.2208 20.0604C10.4588 20.2229 10.6425 20.4519 10.7486 20.7182C10.8546 20.9845 10.8781 21.276 10.8162 21.5556C10.7542 21.8352 10.6095 22.0902 10.4006 22.2881C10.1917 22.4859 9.92803 22.6176 9.64321 22.6664C9.3584 22.7152 9.06536 22.6789 8.80148 22.5621C8.53759 22.4453 8.31483 22.2533 8.16159 22.0105C7.95986 21.691 7.89258 21.3059 7.97417 20.9378C8.05576 20.5697 8.27972 20.2479 8.59804 20.0415Z" fill="#0D0802"/>
<path d="M24.8242 25.7278C24.6659 25.4883 24.5831 25.2076 24.5865 24.9213C24.59 24.6351 24.6794 24.3564 24.8434 24.1207C25.0075 23.885 25.2387 23.703 25.5076 23.598C25.7765 23.493 26.0709 23.4697 26.3532 23.5311C26.6355 23.5925 26.893 23.7357 27.0927 23.9426C27.2925 24.1495 27.4255 24.4107 27.4748 24.6927C27.5241 24.9748 27.4874 25.265 27.3694 25.5263C27.2515 25.7877 27.0576 26.0083 26.8125 26.16C26.4899 26.3598 26.101 26.4265 25.7293 26.3457C25.3577 26.2649 25.0327 26.0431 24.8242 25.7278Z" fill="#0D0802"/>
<path d="M14.301 4.13507C14.4599 4.3745 14.5432 4.65542 14.5401 4.94194C14.537 5.22846 14.4478 5.50756 14.2837 5.74359C14.1197 5.97961 13.8883 6.16183 13.6191 6.26695C13.35 6.37208 13.0553 6.39534 12.7727 6.33376C12.4901 6.27218 12.2325 6.12856 12.0328 5.92125C11.8331 5.71394 11.7003 5.45236 11.6514 5.16994C11.6026 4.88752 11.6399 4.59709 11.7585 4.33575C11.8772 4.07442 12.0718 3.85406 12.3176 3.70284C12.6398 3.50454 13.0275 3.43876 13.398 3.5195C13.7685 3.60025 14.0926 3.82114 14.301 4.13507Z" fill="#0D0802"/>
<path d="M30.212 9.32674C30.0323 9.43735 29.8236 9.49282 29.6121 9.48616C29.4006 9.47949 29.1959 9.41099 29.0237 9.28929C28.8515 9.16758 28.7195 8.99812 28.6443 8.80225C28.5692 8.60638 28.5543 8.39287 28.6015 8.18862C28.6486 7.98437 28.7558 7.79852 28.9095 7.65448C29.0631 7.51045 29.2564 7.41467 29.4649 7.37922C29.6734 7.34377 29.8878 7.37024 30.0812 7.45529C30.2746 7.54033 30.4382 7.68016 30.5514 7.85713C30.6285 7.97447 30.6812 8.10579 30.7066 8.24349C30.732 8.38118 30.7295 8.5225 30.6993 8.65923C30.6691 8.79596 30.6117 8.92538 30.5305 9.03997C30.4494 9.15456 30.346 9.25204 30.2265 9.32674" fill="#F5F5F5"/>
<path d="M30.1247 9.03859L30.1829 9.08662C30.2325 9.04786 30.2765 9.00262 30.3138 8.95214C30.3526 8.9 30.3851 8.84359 30.4108 8.78405L30.3429 8.74563C30.2215 8.65575 30.141 8.52182 30.1192 8.37325C30.0974 8.22468 30.136 8.0736 30.2265 7.95319L30.2799 7.89076C30.239 7.84156 30.1917 7.79796 30.1392 7.76108C30.0871 7.72451 30.032 7.69238 29.9743 7.66503C29.9627 7.68915 29.948 7.71174 29.9307 7.73227C29.84 7.85253 29.7047 7.93221 29.5547 7.95382C29.4047 7.97543 29.2521 7.93721 29.1305 7.84753L29.0724 7.79951C29.0228 7.83826 28.9787 7.8835 28.9414 7.93398C28.9027 7.98612 28.8701 8.04253 28.8444 8.10207L28.9123 8.14049C29.0338 8.23037 29.1142 8.3643 29.136 8.51287C29.1579 8.66144 29.1193 8.81252 29.0287 8.93293L28.9754 8.99537C29.0113 9.04245 29.052 9.08589 29.0966 9.12504C29.1487 9.16161 29.2039 9.19375 29.2615 9.22109L29.3051 9.15385C29.3959 9.03359 29.5311 8.95391 29.6811 8.9323C29.8311 8.91069 29.9837 8.94892 30.1053 9.03859" fill="#0D0802"/>
<path d="M13.6706 5.7968C13.4913 5.91049 13.2821 5.96902 13.0693 5.96498C12.8565 5.96093 12.6496 5.89451 12.4749 5.7741C12.3002 5.65369 12.1655 5.48469 12.0877 5.28847C12.01 5.09224 11.9927 4.87759 12.0381 4.67165C12.0835 4.4657 12.1895 4.2777 12.3427 4.1314C12.4959 3.9851 12.6895 3.88707 12.899 3.84969C13.1085 3.81231 13.3244 3.83727 13.5196 3.9214C13.7148 4.00554 13.8804 4.14508 13.9955 4.32239C14.147 4.55972 14.1979 4.84667 14.137 5.12093C14.0762 5.39519 13.9086 5.63461 13.6706 5.7872" fill="#F5F5F5"/>
<path d="M13.5784 5.50864C13.6015 5.5236 13.6227 5.54135 13.6415 5.56147C13.6888 5.51854 13.7325 5.47197 13.7724 5.42219C13.8094 5.36891 13.8418 5.31269 13.8694 5.2541L13.8015 5.21567C13.6801 5.1258 13.5996 4.99187 13.5778 4.8433C13.556 4.69473 13.5946 4.54365 13.6851 4.42324C13.7002 4.40032 13.7181 4.37935 13.7384 4.3608C13.6539 4.26288 13.5477 4.18562 13.4281 4.13508C13.4181 4.15902 13.405 4.18161 13.3893 4.20232C13.2997 4.3179 13.1686 4.39486 13.0232 4.41722C12.8778 4.43958 12.7293 4.40561 12.6085 4.32238L12.5455 4.27436C12.497 4.31434 12.4531 4.35943 12.4145 4.40883C12.3758 4.46097 12.3432 4.51738 12.3176 4.57692L12.3855 4.61534C12.5069 4.70522 12.5873 4.83915 12.6092 4.98772C12.631 5.13629 12.5924 5.28737 12.5018 5.40778C12.4869 5.42947 12.4707 5.45031 12.4533 5.47022C12.4925 5.51932 12.5382 5.56294 12.5891 5.59989C12.6429 5.6365 12.6997 5.66863 12.7589 5.69594C12.7689 5.672 12.7819 5.64941 12.7977 5.6287C12.8872 5.51312 13.0184 5.43616 13.1637 5.4138C13.3091 5.39144 13.4576 5.4254 13.5784 5.50864Z" fill="#0D0802"/>
<path d="M9.93164 22.1738C9.75312 22.2872 9.54466 22.3455 9.33266 22.3415C9.12065 22.3374 8.91462 22.2712 8.74064 22.1511C8.56665 22.0311 8.43254 21.8626 8.35526 21.6671C8.27798 21.4715 8.26102 21.2576 8.30651 21.0525C8.35201 20.8474 8.45792 20.6603 8.61084 20.5148C8.76377 20.3693 8.95683 20.2721 9.1656 20.2353C9.37436 20.1985 9.58946 20.2239 9.78366 20.3082C9.97785 20.3925 10.1424 20.532 10.2565 20.709C10.4081 20.9464 10.4589 21.2333 10.3981 21.5076C10.3373 21.7818 10.1696 22.0212 9.93164 22.1738Z" fill="#F5F5F5"/>
<path d="M9.8395 21.8857C9.86264 21.9006 9.88381 21.9184 9.90254 21.9385C9.95107 21.8968 9.99497 21.8501 10.0335 21.7992C10.0694 21.747 10.1018 21.6924 10.1305 21.6359L10.0626 21.6119C9.94114 21.522 9.86068 21.3881 9.83886 21.2395C9.81704 21.091 9.85564 20.9399 9.94619 20.8195C9.9613 20.7966 9.97922 20.7756 9.99953 20.7571C9.95619 20.7102 9.90917 20.6669 9.8589 20.6274C9.80511 20.5908 9.74833 20.5586 9.68917 20.5313C9.67915 20.5553 9.66611 20.5779 9.65037 20.5986C9.60584 20.6586 9.5497 20.7093 9.48519 20.7477C9.42069 20.7861 9.34913 20.8114 9.27466 20.8221C9.2002 20.8328 9.12432 20.8288 9.05146 20.8102C8.97859 20.7916 8.91018 20.7588 8.85022 20.7138L8.78717 20.6658C8.73993 20.707 8.69614 20.752 8.65624 20.8003C8.61926 20.8535 8.58682 20.9098 8.55925 20.9684L8.62714 21.0068C8.74082 21.0983 8.81475 21.2294 8.83369 21.3733C8.85264 21.5171 8.81516 21.6627 8.72898 21.78C8.714 21.8017 8.69781 21.8225 8.68049 21.8424C8.72086 21.8904 8.76639 21.9339 8.81627 21.9721C8.86892 22.0105 8.92588 22.0427 8.986 22.0682C8.99602 22.0442 9.00905 22.0216 9.0248 22.0009C9.11555 21.8807 9.25078 21.801 9.4008 21.7794C9.55082 21.7578 9.70337 21.796 9.82495 21.8857" fill="#0D0802"/>
<path d="M26.6137 25.8575C26.4348 25.9695 26.2263 26.0265 26.0147 26.0214C25.8031 26.0162 25.5977 25.9491 25.4245 25.8286C25.2514 25.708 25.1181 25.5393 25.0416 25.3438C24.9652 25.1483 24.9489 24.9347 24.9948 24.7301C25.0407 24.5254 25.1468 24.3388 25.2997 24.1938C25.4526 24.0488 25.6454 23.9519 25.8539 23.9152C26.0623 23.8786 26.277 23.904 26.4709 23.9881C26.6649 24.0722 26.8293 24.2113 26.9435 24.3878C27.0197 24.5057 27.0716 24.6372 27.0962 24.775C27.1209 24.9128 27.1178 25.054 27.0872 25.1906C27.0565 25.3272 26.9989 25.4564 26.9177 25.5708C26.8364 25.6853 26.7331 25.7827 26.6137 25.8575Z" fill="#F5F5F5"/>
<path d="M26.5264 25.5645L26.5846 25.6173C26.6346 25.5757 26.6801 25.529 26.7204 25.4781C26.7576 25.4275 26.7885 25.3726 26.8125 25.3148C26.7904 25.302 26.7693 25.2876 26.7495 25.2715C26.6304 25.1834 26.551 25.0526 26.5283 24.9071C26.5056 24.7616 26.5415 24.6131 26.6282 24.4935L26.6816 24.4359C26.6407 24.3867 26.5934 24.3431 26.541 24.3062C26.49 24.2679 26.4347 24.2357 26.3761 24.2102C26.3651 24.2346 26.3503 24.2573 26.3324 24.2774C26.2417 24.3977 26.1064 24.4773 25.9564 24.499C25.8064 24.5206 25.6539 24.4823 25.5323 24.3927L25.4741 24.3398C25.4244 24.3803 25.3804 24.4272 25.3431 24.4791C25.3044 24.5296 25.2719 24.5844 25.2462 24.6424L25.314 24.6856C25.4287 24.7749 25.5045 24.9042 25.5262 25.047C25.5478 25.1898 25.5135 25.3354 25.4304 25.454L25.3771 25.5117C25.4192 25.5597 25.4663 25.6032 25.5177 25.6413C25.5675 25.6814 25.6231 25.7137 25.6826 25.7374L25.7262 25.6702C25.8178 25.551 25.9529 25.4721 26.1025 25.4505C26.2522 25.429 26.4044 25.4665 26.5264 25.5549" fill="#0D0802"/>
<path d="M15.1642 10.8396L17.2252 10.8924C18.229 10.9212 18.8789 11.1037 19.165 11.4495C19.3465 11.6809 19.456 11.9596 19.4802 12.2515C19.5007 12.5442 19.5007 12.8378 19.4802 13.1304V13.8076C19.4876 14.1323 19.445 14.4561 19.3541 14.7681C19.1456 15.33 18.5685 15.599 17.618 15.575H17.0652L16.9827 18.7159L14.9363 18.6631L15.1642 10.8396ZM17.1719 12.2227L17.1185 14.1966H17.2737C17.3574 14.2101 17.4433 14.1991 17.5208 14.1649C17.5983 14.1308 17.6641 14.0751 17.7101 14.0045C17.7738 13.8525 17.8036 13.6887 17.7974 13.5243V12.8855C17.8281 12.7057 17.7863 12.5212 17.681 12.3716C17.5296 12.2631 17.3432 12.2135 17.1573 12.2323" fill="#F5F5F5"/>
<path d="M24.6885 14.48L22.642 14.408L22.6808 13.0536C22.6808 12.7174 22.6808 12.5349 22.6808 12.4965C22.642 12.2756 22.5305 12.1651 22.3413 12.1603C22.1522 12.1555 22.0067 12.266 21.9534 12.5061C21.9534 12.5541 21.9534 12.7558 21.9243 13.0968L21.8224 16.7372C21.8224 17.0542 21.8224 17.2463 21.8224 17.3136C21.8612 17.5441 21.9776 17.6593 22.1716 17.6642C22.3656 17.669 22.4917 17.5441 22.5402 17.2895C22.5402 17.2367 22.5402 17.0302 22.5693 16.6844V15.7239L24.6157 15.7767V16.0793C24.6206 16.5631 24.5734 17.0461 24.4751 17.5201C24.4125 17.76 24.3017 17.9849 24.1492 18.1813C23.9967 18.3777 23.8057 18.5416 23.5876 18.6631C23.1427 18.9031 22.6386 19.0146 22.1328 18.9849C20.8962 18.9561 20.1591 18.5046 19.9069 17.7074C19.773 17.1461 19.7256 16.5681 19.7663 15.9928L19.8827 13.7116C19.885 13.3505 19.906 12.9899 19.9457 12.631C19.9884 12.2738 20.1256 11.9342 20.3434 11.6464C20.5865 11.3627 20.8963 11.1425 21.2456 11.0052C21.5948 10.8678 21.9727 10.8176 22.3462 10.8588C22.8064 10.8646 23.2598 10.9694 23.6749 11.1662C23.8851 11.2543 24.0742 11.3854 24.2296 11.5509C24.385 11.7165 24.5034 11.9127 24.5769 12.1267C24.7122 12.6534 24.7613 13.1982 24.7224 13.7404L24.6885 14.48Z" fill="#F5F5F5"/>
</svg>
