<svg width="83" height="26" viewBox="0 0 83 26" fill="none" xmlns="http://www.w3.org/2000/svg">
<path d="M12.4712 0.5C5.88211 0.5 0.509029 5.5565 0 11.9972L6.70221 14.7655C7.2678 14.3701 7.94651 14.1441 8.68177 14.1441C8.73833 14.1441 8.82317 14.1441 8.87973 14.1441L11.8773 9.85028C11.8773 9.82203 11.8773 9.82203 11.8773 9.79379C11.8773 7.19492 13.9983 5.07627 16.6 5.07627C19.2017 5.07627 21.3227 7.19492 21.3227 9.79379C21.3227 12.3927 19.2017 14.5113 16.6 14.5113C16.5717 14.5113 16.5152 14.5113 16.4869 14.5113L12.245 17.5339C12.245 17.5904 12.245 17.6469 12.245 17.7034C12.245 19.6525 10.6613 21.2345 8.71005 21.2345C6.98501 21.2345 5.57104 20.0198 5.23169 18.3814L0.424191 16.404C1.89472 21.6582 6.73049 25.5 12.4712 25.5C19.3714 25.5 24.9707 19.9068 24.9707 13.0141C24.9707 6.09322 19.3714 0.5 12.4712 0.5Z" fill="#F5F5F5"/>
<path d="M7.83339 19.4548L6.3063 18.8333C6.5891 19.3983 7.04157 19.8785 7.66372 20.1328C9.02113 20.6977 10.5765 20.048 11.1421 18.6921C11.4249 18.0424 11.4249 17.3079 11.1421 16.6582C10.8593 16.0085 10.3503 15.5 9.69983 15.2175C9.04941 14.935 8.34242 14.9633 7.74855 15.1893L9.3322 15.839C10.322 16.2627 10.8027 17.3927 10.3785 18.3814C9.98263 19.3983 8.82317 19.8785 7.83339 19.4548Z" fill="#F5F5F5"/>
<path d="M19.739 9.76554C19.739 8.04237 18.325 6.62994 16.6 6.62994C14.8749 6.62994 13.461 8.04237 13.461 9.76554C13.461 11.4887 14.8749 12.9011 16.6 12.9011C18.325 12.9011 19.739 11.5169 19.739 9.76554ZM14.2245 9.76554C14.2245 8.4661 15.2708 7.4209 16.6 7.4209C17.9291 7.4209 18.9754 8.4661 18.9754 9.76554C18.9754 11.065 17.9291 12.1102 16.6 12.1102C15.2708 12.1102 14.2245 11.065 14.2245 9.76554Z" fill="#F5F5F5"/>
<path d="M38.3468 9.05932L37.4985 10.5282C36.848 10.0763 35.9714 9.79378 35.2078 9.79378C34.3312 9.79378 33.7939 10.161 33.7939 10.8107C33.7939 11.6017 34.7554 11.7712 36.1693 12.2797C37.6964 12.8164 38.5731 13.4661 38.5731 14.8503C38.5731 16.7712 37.0743 17.8446 34.8968 17.8446C33.8504 17.8446 32.5496 17.5621 31.5881 16.9689L32.2102 15.3305C33.002 15.7542 33.9635 16.0085 34.8119 16.0085C35.9714 16.0085 36.5087 15.5847 36.5087 14.9633C36.5087 14.2571 35.6886 14.0311 34.3312 13.5791C32.8041 13.0706 31.7578 12.3927 31.7578 10.839C31.7578 9.08757 33.1717 8.07062 35.1796 8.07062C36.5652 8.12711 37.6964 8.57909 38.3468 9.05932Z" fill="#F5F5F5"/>
<path d="M44.8794 9.99152V17.7034H42.9281V9.99152H40.0436V8.29661H47.7356V9.99152H44.8794Z" fill="#F5F5F5"/>
<path d="M51.8927 9.96327V12.1102H55.6821V13.7768H51.8927V16.0085H56.276V17.7034H49.9414V8.29661H56.276V9.96327H51.8927Z" fill="#F5F5F5"/>
<path d="M60.6875 15.8672L60.0654 17.7034H58.001L61.5359 8.29661H63.5155L67.1352 17.7034H64.986L64.3356 15.8672H60.6875ZM62.5257 10.5282L61.2249 14.2853H63.8266L62.5257 10.5282Z" fill="#F5F5F5"/>
<path d="M77.2875 11.9407L74.7141 17.4209H73.583L71.0661 11.9689V17.7034H69.1714V8.29661H71.0378L74.2051 15.0763L77.2593 8.29661H79.1823V17.7034H77.2875V11.9407Z" fill="#F5F5F5"/>
<path d="M83 9.48305C83 10.3023 82.4061 10.7825 81.6991 10.7825C80.9922 10.7825 80.3983 10.274 80.3983 9.48305C80.3983 8.66384 81.0204 8.18361 81.6991 8.18361C82.3778 8.15537 83 8.66384 83 9.48305ZM80.5962 9.48305C80.5962 10.161 81.077 10.5847 81.6709 10.5847C82.2647 10.5847 82.7455 10.161 82.7455 9.48305C82.7455 8.80508 82.2647 8.38135 81.6709 8.38135C81.077 8.38135 80.5962 8.80508 80.5962 9.48305ZM81.6991 8.80508C82.0385 8.80508 82.1516 8.97457 82.1516 9.17231C82.1516 9.34181 82.0385 9.4548 81.9254 9.53955L82.2364 10.1045H81.9819L81.7274 9.59604H81.4446V10.1045H81.2467V8.80508H81.6991ZM81.4729 9.3983H81.6991C81.8405 9.3983 81.9254 9.31356 81.9254 9.20056C81.9254 9.08757 81.8688 9.00282 81.6991 9.00282H81.4729V9.3983Z" fill="#F5F5F5"/>
</svg>
